<svg width="179" height="44" viewBox="0 0 179 44" fill="none" xmlns="http://www.w3.org/2000/svg">
<path d="M16.28 27.92H26.16V41.92C24.6133 42.4267 23.0533 42.8 21.48 43.04C19.9067 43.28 18.12 43.4 16.12 43.4C13.16 43.4 10.6667 42.8133 8.64 41.64C6.61333 40.44 5.06667 38.7467 4 36.56C2.96 34.3467 2.44 31.7333 2.44 28.72C2.44 25.7333 3.02667 23.1467 4.2 20.96C5.37333 18.7733 7.05333 17.08 9.24 15.88C11.4533 14.6533 14.12 14.04 17.24 14.04C18.84 14.04 20.3467 14.1867 21.76 14.48C23.2 14.7733 24.5333 15.1867 25.76 15.72L24.4 18.84C23.3867 18.3867 22.24 18 20.96 17.68C19.7067 17.36 18.4 17.2 17.04 17.2C14.7733 17.2 12.8267 17.6667 11.2 18.6C9.57333 19.5333 8.33333 20.8667 7.48 22.6C6.62667 24.3067 6.2 26.3467 6.2 28.72C6.2 30.9867 6.56 33 7.28 34.76C8.02667 36.4933 9.18667 37.8533 10.76 38.84C12.3333 39.8 14.4 40.28 16.96 40.28C17.8133 40.28 18.56 40.2533 19.2 40.2C19.8667 40.12 20.4667 40.0267 21 39.92C21.56 39.8133 22.08 39.7067 22.56 39.6V31.12H16.28V27.92ZM36.0216 21.56V43H32.5016V21.56H36.0216ZM34.3016 13.52C34.8349 13.52 35.3016 13.7067 35.7016 14.08C36.1282 14.4267 36.3416 14.9867 36.3416 15.76C36.3416 16.5067 36.1282 17.0667 35.7016 17.44C35.3016 17.8133 34.8349 18 34.3016 18C33.7149 18 33.2216 17.8133 32.8216 17.44C32.4216 17.0667 32.2216 16.5067 32.2216 15.76C32.2216 14.9867 32.4216 14.4267 32.8216 14.08C33.2216 13.7067 33.7149 13.52 34.3016 13.52ZM49.9741 40.52C50.5074 40.52 51.0541 40.48 51.6141 40.4C52.1741 40.2933 52.6274 40.1867 52.9741 40.08V42.76C52.6007 42.9467 52.0674 43.0933 51.3741 43.2C50.6807 43.3333 50.0141 43.4 49.3741 43.4C48.2541 43.4 47.2141 43.2133 46.2541 42.84C45.3207 42.44 44.5607 41.76 43.9741 40.8C43.3874 39.84 43.0941 38.4933 43.0941 36.76V24.28H40.0541V22.6L43.1341 21.2L44.5341 16.64H46.6141V21.56H52.8141V24.28H46.6141V36.68C46.6141 37.9867 46.9207 38.96 47.5341 39.6C48.1741 40.2133 48.9874 40.52 49.9741 40.52Z" fill="#112155"/>
<path d="M79.5872 43H75.9872V29.68H61.3472V43H57.7472V14.44H61.3472V26.52H75.9872V14.44H79.5872V43ZM95.1956 21.16C97.0356 21.16 98.609 21.56 99.9156 22.36C101.249 23.16 102.262 24.2933 102.956 25.76C103.676 27.2 104.036 28.8933 104.036 30.84V32.96H89.3556C89.409 35.3867 90.0223 37.24 91.1956 38.52C92.3956 39.7733 94.0623 40.4 96.1956 40.4C97.5556 40.4 98.7556 40.28 99.7956 40.04C100.862 39.7733 101.956 39.4 103.076 38.92V42C101.982 42.48 100.902 42.8267 99.8356 43.04C98.769 43.28 97.5023 43.4 96.0356 43.4C94.009 43.4 92.209 42.9867 90.6356 42.16C89.089 41.3333 87.8756 40.1067 86.9956 38.48C86.1423 36.8267 85.7156 34.8133 85.7156 32.44C85.7156 30.0933 86.1023 28.08 86.8756 26.4C87.6756 24.72 88.7823 23.4267 90.1956 22.52C91.6356 21.6133 93.3023 21.16 95.1956 21.16ZM95.1556 24.04C93.4756 24.04 92.1423 24.5867 91.1556 25.68C90.1956 26.7467 89.6223 28.24 89.4356 30.16H100.356C100.356 28.9333 100.169 27.8667 99.7956 26.96C99.4223 26.0533 98.849 25.3467 98.0756 24.84C97.329 24.3067 96.3556 24.04 95.1556 24.04ZM119.494 21.16C119.894 21.16 120.32 21.1867 120.774 21.24C121.254 21.2667 121.667 21.32 122.014 21.4L121.574 24.64C121.227 24.56 120.84 24.4933 120.414 24.44C120.014 24.3867 119.627 24.36 119.254 24.36C118.427 24.36 117.64 24.5333 116.894 24.88C116.147 25.2267 115.48 25.72 114.894 26.36C114.307 26.9733 113.84 27.72 113.494 28.6C113.174 29.48 113.014 30.4667 113.014 31.56V43H109.494V21.56H112.374L112.774 25.48H112.934C113.387 24.68 113.934 23.96 114.574 23.32C115.214 22.6533 115.947 22.1333 116.774 21.76C117.6 21.36 118.507 21.16 119.494 21.16ZM133.516 21.16C135.356 21.16 136.929 21.56 138.236 22.36C139.569 23.16 140.583 24.2933 141.276 25.76C141.996 27.2 142.356 28.8933 142.356 30.84V32.96H127.676C127.729 35.3867 128.343 37.24 129.516 38.52C130.716 39.7733 132.383 40.4 134.516 40.4C135.876 40.4 137.076 40.28 138.116 40.04C139.183 39.7733 140.276 39.4 141.396 38.92V42C140.303 42.48 139.223 42.8267 138.156 43.04C137.089 43.28 135.823 43.4 134.356 43.4C132.329 43.4 130.529 42.9867 128.956 42.16C127.409 41.3333 126.196 40.1067 125.316 38.48C124.463 36.8267 124.036 34.8133 124.036 32.44C124.036 30.0933 124.423 28.08 125.196 26.4C125.996 24.72 127.103 23.4267 128.516 22.52C129.956 21.6133 131.623 21.16 133.516 21.16ZM133.476 24.04C131.796 24.04 130.463 24.5867 129.476 25.68C128.516 26.7467 127.943 28.24 127.756 30.16H138.676C138.676 28.9333 138.489 27.8667 138.116 26.96C137.743 26.0533 137.169 25.3467 136.396 24.84C135.649 24.3067 134.676 24.04 133.476 24.04Z" fill="#6C84EE"/>
<path d="M140 7H151V18" stroke="#6C84EE" stroke-width="3"/>
</svg>
